<svg width="52" height="45" viewBox="0 0 52 45" fill="none" xmlns="http://www.w3.org/2000/svg">
<path d="M39.599 6.623C39.05 6.623 38.527 6.668 38.019 6.744C36.06 2.764 31.982 0 27.218 0C23.495 0 20.193 1.703 17.989 4.34C16.419 3.645 14.678 3.25 12.846 3.25C5.748 3.25 0 9 0 16.094C0 22.032 4.043 26.981 9.498 28.444V44.44H41.695V30.635C47.373 29.639 51.691 24.688 51.691 18.723C51.693 12.039 46.277 6.623 39.599 6.623ZM13.689 40.246V34.074H37.5V40.246H13.689ZM39.599 26.627H37.499V32.873H13.689V27.764C16.554 27.711 19.127 26.551 21.027 24.705C22.519 25.473 24.215 25.906 26.006 25.906C30.412 25.906 34.186 23.273 35.891 19.5C35.95 19.406 36 19.316 36.036 19.211C36.05 19.178 36.067 19.149 36.083 19.115L36.056 19.105C36.087 18.984 36.132 18.867 36.132 18.738C36.132 17.908 35.458 17.238 34.632 17.238C34.071 17.238 33.607 17.554 33.349 18.006L33.308 17.99C32.134 20.875 29.306 22.91 26.007 22.904C24.366 22.904 22.853 22.412 21.589 21.55L20.452 20.78L19.579 21.844C18.12 23.635 15.964 24.78 13.503 24.785V24.83L11.839 24.635C7.538 24.127 4.189 20.518 4.196 16.092C4.2 11.311 8.065 7.446 12.848 7.44C14.559 7.44 16.133 7.95 17.496 8.819L19.328 9.995L20.439 8.118C21.828 5.759 24.328 4.19 27.218 4.19C30.769 4.19 33.739 6.547 34.736 9.797L35.345 11.785L37.337 11.187C38.134 10.955 38.866 10.812 39.599 10.812C43.96 10.826 47.495 14.357 47.499 18.72C47.496 23.08 43.961 26.615 39.599 26.627Z" fill="black"/>
</svg>
