<?xml version="1.0" encoding="iso-8859-1"?>
<!-- Generator: Adobe Illustrator 19.0.0, SVG Export Plug-In . SVG Version: 6.00 Build 0)  -->
<svg version="1.1" id="Capa_1" xmlns="http://www.w3.org/2000/svg" xmlns:xlink="http://www.w3.org/1999/xlink" x="0px" y="0px"
	 viewBox="0 0 512 512" style="enable-background:new 0 0 512 512;" xml:space="preserve">
<g>
	<g>
		<path d="M256,78.916c-4.142,0-7.5,3.358-7.5,7.5v83.715c0,4.142,3.358,7.5,7.5,7.5c4.142,0,7.5-3.358,7.5-7.5V86.416
			C263.5,82.274,260.142,78.916,256,78.916z"/>
	</g>
</g>
<g>
	<g>
		<path d="M180.82,78.916c-4.142,0-7.5,3.358-7.5,7.5v83.715c0,4.142,3.358,7.5,7.5,7.5s7.5-3.358,7.5-7.5V86.416
			C188.32,82.274,184.962,78.916,180.82,78.916z"/>
	</g>
</g>
<g>
	<g>
		<path d="M331.179,78.916c-4.142,0-7.5,3.358-7.5,7.5v83.715c0,4.142,3.358,7.5,7.5,7.5c4.142,0,7.5-3.358,7.5-7.5V86.416
			C338.679,82.274,335.321,78.916,331.179,78.916z"/>
	</g>
</g>
<g>
	<g>
		<circle cx="236.63" cy="472" r="9.192"/>
	</g>
</g>
<g>
	<g>
		<circle cx="313.43" cy="472" r="9.192"/>
	</g>
</g>
<g>
	<g>
		<path d="M338.333,274.305c-4.142,0-7.5,3.358-7.5,7.5v16.009c0,4.142,3.358,7.5,7.5,7.5c4.142,0,7.5-3.358,7.5-7.5v-16.009
			C345.833,277.663,342.475,274.305,338.333,274.305z"/>
	</g>
</g>
<g>
	<g>
		<path d="M349.236,313.844h-21.805c-4.142,0-7.5,3.358-7.5,7.5c0,4.142,3.358,7.5,7.5,7.5h21.805c4.142,0,7.5-3.358,7.5-7.5
			C356.736,317.202,353.378,313.844,349.236,313.844z"/>
	</g>
</g>
<g>
	<g>
		<path d="M173.666,274.305c-4.142,0-7.5,3.358-7.5,7.5v16.009c0,4.142,3.358,7.5,7.5,7.5c4.142,0,7.5-3.358,7.5-7.5v-16.009
			C181.166,277.663,177.808,274.305,173.666,274.305z"/>
	</g>
</g>
<g>
	<g>
		<path d="M184.568,313.844h-21.805c-4.142,0-7.5,3.358-7.5,7.5c0,4.142,3.358,7.5,7.5,7.5h21.805c4.142,0,7.5-3.358,7.5-7.5
			C192.068,317.202,188.71,313.844,184.568,313.844z"/>
	</g>
</g>
<g>
	<g>
		<path d="M275.662,308.277c-3.119-2.726-7.856-2.407-10.583,0.711c-2.195,2.511-5.504,3.952-9.079,3.952s-6.885-1.44-9.08-3.952
			c-2.727-3.118-7.464-3.437-10.583-0.711s-3.437,7.464-0.711,10.583c5.044,5.77,12.47,9.08,20.374,9.08
			c7.903,0,15.329-3.31,20.373-9.08C279.099,315.742,278.781,311.003,275.662,308.277z"/>
	</g>
</g>
<g>
	<g>
		<path d="M444.226,298.986c0-13.89-6.977-26.339-17.603-33.967V118.483c11.374-13.028,17.604-29.594,17.604-46.984
			C444.227,32.074,412.153,0,372.729,0c-23.42,0-45.117,11.523-58.364,30.22C301.116,11.524,279.419,0,256,0
			c-23.42,0-45.117,11.523-58.364,30.22C184.388,11.524,162.691,0,139.271,0C99.847,0,67.773,32.074,67.773,71.499
			c0,17.39,6.229,33.956,17.603,46.983v146.539c-10.626,7.628-17.603,20.077-17.603,33.967c0,13.919,6.844,26.263,17.336,33.866
			c-0.616,7.674-2.533,24.982-8.124,43.718c-3.849,12.901-1.878,26.766,5.408,38.041c5.174,8.007,12.59,14.094,21.165,17.606
			c-9.363,15.33-14.285,32.772-14.285,51.019V504.5c0,4.142,3.358,7.5,7.5,7.5h318.453c4.142,0,7.5-3.358,7.5-7.5v-21.264
			c0-18.247-4.923-35.688-14.286-51.019c8.577-3.512,15.994-9.602,21.168-17.611c7.284-11.274,9.253-25.138,5.404-38.036
			c-5.626-18.859-7.523-36.048-8.129-43.714C437.379,325.253,444.226,312.908,444.226,298.986z M82.773,71.499
			C82.773,40.345,108.118,15,139.271,15c22.18,0,42.405,13.083,51.526,33.331c1.212,2.69,3.888,4.419,6.838,4.419
			c2.951,0,5.626-1.73,6.838-4.42C213.594,28.083,233.819,15,256,15c22.18,0,42.405,13.083,51.526,33.331
			c1.212,2.69,3.888,4.419,6.838,4.419s5.626-1.73,6.838-4.42C330.323,28.083,350.548,15,372.729,15
			c31.153,0,56.498,25.345,56.498,56.499c0,14.515-5.491,28.303-15.464,38.836c-1.349,1.379-2.139,3.252-2.139,5.245v76.553H169.335
			c-4.142,0-7.5,3.358-7.5,7.5c0,4.142,3.358,7.5,7.5,7.5h242.288v14.911h-20.17H256H120.547h-20.171v-14.911h39.52
			c4.142,0,7.5-3.358,7.5-7.5c0-4.142-3.358-7.5-7.5-7.5h-39.52l-0.001-76.554c0-1.923-0.739-3.773-2.063-5.167
			C88.292,99.87,82.773,86.05,82.773,71.499z M411.624,237.044v21.176c-0.688-0.154-1.388-0.292-2.083-0.412
			c-0.014-0.002-0.028-0.006-0.042-0.008c-1.593-7.05-3.74-13.977-6.454-20.756H411.624z M182.939,266.85
			c32.415-5.476,56.941-14.686,73.061-27.407c16.12,12.721,40.646,21.931,73.06,27.407c27.95,4.722,54.355,5.427,67.608,5.427
			c0.059,0,0.109,0,0.167,0c0.315,2.419,0.562,4.848,0.733,7.281c1.285,18.238-1.609,36.578-8.269,53.591
			c-0.025,0.063-0.049,0.126-0.074,0.189c-12.801,32.383-38.357,57.186-69.054,71.693c-33.07,15.628-71.325,18.71-106.463,8.53
			c-42.073-12.191-75.781-42.071-90.921-80.19c-0.038-0.097-0.076-0.195-0.114-0.292c-6.683-16.943-9.514-35.325-8.244-53.492
			c0.172-2.442,0.419-4.881,0.736-7.31c0.058,0,0.107,0,0.169,0C128.588,272.277,154.991,271.571,182.939,266.85z M118.082,257.268
			c0.332-1.278,0.684-2.551,1.057-3.817c1.655-5.601,3.707-11.094,6.134-16.407H231.35
			C201.691,251.378,156.364,257.011,118.082,257.268z M280.651,237.044h106.076c0.526,1.151,1.03,2.31,1.519,3.475
			c2.286,5.439,4.187,11.039,5.672,16.749C355.637,257.012,310.309,251.379,280.651,237.044z M108.954,237.044
			c-2.715,6.779-4.862,13.707-6.455,20.756c-0.013,0.002-0.026,0.005-0.039,0.008c-0.694,0.121-1.396,0.257-2.084,0.412v-21.176
			H108.954z M82.773,298.988c0-11.238,7.118-21.011,17.079-24.948c-0.113,1.112-0.215,2.227-0.301,3.344
			c-1.237,16.037,0.318,32.359,4.656,47.854c-0.233-0.048-0.463-0.104-0.695-0.158C91.682,322.335,82.773,311.133,82.773,298.988z
			 M94.992,406.471c-4.974-7.697-6.264-16.792-3.632-25.611c4.893-16.397,7.156-31.624,8.187-41.289
			c0.038,0.009,0.076,0.015,0.113,0.024c2.463,0.608,4.997,0.983,7.529,1.126c0.792,0.045,1.588,0.073,2.398,0.073
			c8.251,19.979,21.097,37.985,37.646,52.833c-11.896,5.381-22.708,13.158-31.615,22.702c-0.98,1.05-1.947,2.118-2.88,3.211
			C105.501,417.56,99.173,412.94,94.992,406.471z M194.331,458.871V497h-31.782v-37.312c0-4.142-3.358-7.5-7.5-7.5
			c-4.142,0-7.5,3.358-7.5,7.5V497h-43.275v-13.764h-0.001c0-27.429,13.715-52.678,35.318-68.012
			c6.477-4.58,13.584-8.247,21.094-10.813c16.782,11.999,35.811,20.609,56.065,25.473c0.094,0.022,4.739,1.094,6.981,1.531
			l-26.629,21.635C195.349,454.474,194.331,456.613,194.331,458.871z M407.727,497h-43.276v-37.312c0-4.142-3.358-7.5-7.5-7.5
			c-4.142,0-7.5,3.358-7.5,7.5V497h-140.12v-34.56l34.87-28.331c1.8,0.125,3.61,0.214,5.426,0.282
			c18.633,0.694,37.368-1.675,55.202-7.136c16.559-5.071,32.373-12.772,46.474-22.838c6.808,2.325,13.303,5.561,19.298,9.562
			c22.869,15.264,37.126,41.753,37.126,69.257V497z M417.01,406.467c-4.179,6.469-10.505,11.089-17.74,13.07
			c-0.37-0.433-0.75-0.857-1.128-1.283c-7.955-8.989-17.689-16.606-28.396-22.198c-1.636-0.854-3.3-1.666-4.982-2.427
			c16.551-14.849,29.396-32.854,37.655-52.834c0.803,0,1.6-0.028,2.392-0.073c2.576-0.147,5.141-0.535,7.646-1.152
			c1.033,9.631,3.3,24.924,8.182,41.29C423.27,389.677,421.981,398.772,417.01,406.467z M414.787,322.748
			c-2.195,1.147-4.567,1.993-6.994,2.489c1.116-3.985,2.033-8.026,2.785-12.095c2.176-11.779,2.789-23.834,1.869-35.776
			c-0.086-1.111-0.187-2.219-0.299-3.325c9.963,3.936,17.079,13.71,17.079,24.948C429.227,309.307,423.356,318.269,414.787,322.748z
			"/>
	</g>
</g>
<g>
</g>
<g>
</g>
<g>
</g>
<g>
</g>
<g>
</g>
<g>
</g>
<g>
</g>
<g>
</g>
<g>
</g>
<g>
</g>
<g>
</g>
<g>
</g>
<g>
</g>
<g>
</g>
<g>
</g>
</svg>
